<svg width="24" height="24" viewBox="0 0 35 42" fill="none" xmlns="http://www.w3.org/2000/svg">
    <path d="M18.76 41.909H18.7222H18.711C14.6023 41.4962 10.7097 39.8686 7.52991 37.234C4.35012 34.5994 2.02732 31.0772 0.857862 27.1169C-0.311592 23.1565 -0.274667 18.9375 0.963926 14.9982C2.20252 11.0589 4.58662 7.57793 7.81204 4.9994L7.85404 4.963C11.1205 2.27832 15.0755 0.565427 19.2682 0.0196L19.46 0L21.2464 4.3988L21.049 4.4142C17.3322 4.64546 13.7786 6.02385 10.878 8.3594L10.738 8.4686C10.6666 8.526 10.598 8.5848 10.5252 8.645L10.4706 8.6898C7.98972 10.7356 6.17236 13.4721 5.24908 16.5524C4.3258 19.6326 4.33821 22.9176 5.28475 25.9907C6.23129 29.0639 8.0693 31.7866 10.5656 33.8136C13.0619 35.8406 16.104 37.0804 19.306 37.3758C23.972 37.7648 28.6058 36.32 32.2238 33.348C32.3928 33.208 32.5603 33.0652 32.7264 32.9196L34.5156 37.3254C30.0273 40.7808 24.4015 42.4174 18.76 41.909ZM23.5312 10.3474H17.9886L10.5966 28.539H15.3384L20.7592 14.4886L26.18 28.539H30.9218L23.5312 10.3474Z"
          fill="green"/>
</svg>
